<svg xmlns="http://www.w3.org/2000/svg" width="150" height="50" viewBox="0,0,150,50"><path fill="#111" d="M50.73 29.56L50.75 29.58L50.70 29.53Q49.53 28.78 48.89 28.82L48.83 28.76L48.92 28.85Q47.52 28.90 46.47 29.91L46.51 29.94L46.34 29.78Q45.37 30.86 45.49 32.23L45.53 32.28L45.48 32.23Q45.70 36.48 44.83 41.01L44.87 41.05L44.84 41.02Q42.76 41.61 41.66 42.14L41.70 42.18L41.70 42.19Q43.12 37.94 42.89 33.48L42.82 33.41L42.85 33.44Q42.54 28.86 40.82 24.79L40.98 24.95L40.99 24.95Q41.97 25.48 44.26 26.13L44.33 26.20L44.83 28.84L44.96 28.96Q45.57 26.00 49.84 26.00L49.78 25.94L49.87 26.03Q50.28 25.98 50.58 25.98L50.64 26.04L50.60 26.00Q51.82 25.92 53.07 26.61L53.07 26.60L53.07 26.61Q51.72 27.92 50.58 29.40ZM52.32 31.52L52.29 31.34L52.41 31.47Q53.34 30.34 55.02 27.91L54.95 27.84L54.94 27.82Q54.43 27.43 52.91 27.16L52.88 27.14L52.91 27.17Q53.21 26.82 53.67 26.21L53.72 26.27L53.82 26.37Q51.90 25.43 49.95 25.62L49.86 25.52L49.93 25.60Q48.06 25.86 47.33 26.12L47.25 26.04L47.27 26.06Q45.79 26.40 44.99 27.51L45.05 27.57L44.74 26.61L44.64 25.86L44.69 25.92Q42.15 25.36 40.17 24.03L40.22 24.07L40.35 24.20Q42.32 28.42 42.55 33.29L42.72 33.46L42.62 33.36Q42.80 38.22 41.04 42.75L41.18 42.88L41.11 42.82Q42.17 42.31 43.04 42.01L43.06 42.02L43.00 41.96Q42.86 43.19 42.36 44.26L42.21 44.11L42.19 44.09Q45.20 43.41 47.34 43.29L47.23 43.18L47.53 38.77L47.56 38.80Q47.61 36.49 47.61 34.24L47.62 34.26L47.50 34.13Q47.67 33.12 48.58 32.15L48.42 31.99L48.54 32.11Q49.35 31.04 50.50 30.96L50.53 30.99L50.47 30.94Q51.18 30.88 51.90 31.57L51.85 31.51L52.19 31.39ZM47.25 29.65L47.24 29.57L47.27 29.71L47.28 29.68Z"/><path fill="#111" d="M121.45 30.54L121.35 30.44L121.44 30.53Q117.84 36.75 114.42 40.71L114.47 40.77L114.44 40.74Q112.64 41.22 110.20 42.10L110.15 42.04L110.13 42.02Q115.04 36.42 119.80 28.01L119.71 27.92L119.72 27.94Q115.24 21.09 109.26 14.69L109.26 14.69L109.30 14.73Q112.04 15.76 114.33 16.26L114.49 16.42L114.36 16.29Q119.06 21.56 121.49 25.52L121.45 25.48L121.49 25.52Q123.98 21.07 127.90 16.66L127.89 16.65L127.99 16.75Q129.46 16.31 132.65 15.55L132.65 15.55L132.72 15.61Q126.67 22.09 123.20 28.03L123.28 28.11L123.22 28.04Q128.35 36.68 132.73 41.25L132.65 41.17L132.66 41.18Q130.18 40.49 128.08 40.26L128.14 40.32L128.08 40.26Q125.26 37.25 121.34 30.43ZM128.04 40.63L128.03 40.62L128.05 40.65Q128.19 40.51 128.65 40.63L128.83 40.81L128.71 40.70Q129.59 41.54 131.12 43.14L131.12 43.15L131.04 43.06Q134.40 43.87 137.45 45.24L137.46 45.26L137.41 45.21Q130.30 38.63 125.20 29.87L125.11 29.79L125.27 29.94Q129.06 23.34 134.96 16.49L134.86 16.39L134.77 16.30Q133.43 17.05 131.26 17.58L131.35 17.67L131.32 17.64Q132.16 16.69 133.91 14.90L133.94 14.93L133.93 14.93Q131.42 15.69 127.73 16.26L127.79 16.32L127.79 16.32Q124.43 20.19 121.84 24.50L121.74 24.39L121.83 24.49Q120.86 22.83 119.68 21.35L119.75 21.41L117.47 18.49L117.00 18.40L116.98 18.38Q116.90 18.45 116.67 18.37L116.63 18.33L116.57 18.28Q115.86 17.41 114.38 15.85L114.37 15.84L114.45 15.93Q110.66 15.07 108.07 13.70L108.08 13.71L108.12 13.75Q114.90 21.06 119.47 28.10L119.44 28.08L119.30 27.94Q114.97 36.28 109.22 42.87L109.06 42.70L109.18 42.82Q110.40 42.06 112.53 41.49L112.58 41.54L111.23 42.93L111.32 43.03Q111.35 43.05 110.01 44.38L109.96 44.33L110.04 44.41Q113.02 43.32 116.18 42.82L116.11 42.75L116.13 42.77Q120.22 38.33 122.80 33.57L122.72 33.49L122.63 33.39Q125.23 37.67 127.93 40.52Z"/><path fill="#111" d="M16.04 49.68L15.92 49.57L15.90 49.54Q18.87 45.73 21.76 39.53L21.69 39.46L21.79 39.56Q18.68 33.02 12.59 24.95L12.66 25.02L12.56 24.92Q14.41 26.01 17.19 26.66L17.28 26.75L17.17 26.64Q20.81 31.42 23.25 36.64L23.22 36.61L23.22 36.61Q25.48 31.41 28.57 27.00L28.56 26.99L28.55 26.98Q30.60 26.48 32.69 25.68L32.71 25.70L32.80 25.79Q29.27 29.49 25.81 36.92L25.84 36.95L23.13 43.07L23.03 42.97Q21.67 46.18 19.92 48.81L19.82 48.71L19.86 48.75Q17.51 49.18 16.06 49.71ZM22.11 50.92L22.07 50.88L22.09 50.90Q23.80 48.00 25.25 44.73L25.30 44.78L28.04 38.47L28.00 38.42Q31.59 30.47 34.90 26.48L34.80 26.38L34.85 26.42Q33.61 27.20 31.71 27.89L31.57 27.75L32.66 26.41L32.65 26.40Q33.12 25.61 33.73 24.93L33.75 24.95L33.83 25.03Q31.18 26.10 28.32 26.56L28.30 26.54L28.31 26.55Q25.59 30.49 23.65 34.95L23.50 34.80L23.64 34.93Q21.89 31.51 20.10 28.70L20.12 28.72L20.14 28.73Q19.94 28.72 19.58 28.69L19.61 28.72L19.62 28.73Q19.21 28.65 19.02 28.65L19.17 28.79L19.12 28.75Q18.23 27.36 17.28 26.22L17.29 26.22L17.43 26.37Q14.14 25.59 11.40 23.88L11.46 23.94L11.54 24.01Q17.71 31.94 21.40 39.55L21.46 39.61L21.38 39.53Q19.19 44.58 15.12 50.21L15.07 50.16L15.06 50.15Q16.06 50.05 16.86 49.90L16.71 49.75L18.40 49.46L18.37 49.42Q17.80 50.18 16.62 51.82L16.50 51.71L16.60 51.81Q18.83 51.14 22.11 50.91Z"/><path fill="#333" d="M71.19 41.11L71.24 41.16L69.50 41.13L69.54 41.18Q66.10 41.12 65.15 38.99L65.19 39.03L65.20 39.04Q66.28 37.91 67.72 36.81L67.77 36.85L67.76 36.85Q68.29 38.98 71.15 38.82L71.15 38.83L71.15 38.82Q72.01 38.85 73.04 38.62L73.14 38.72L72.95 38.53Q74.03 38.16 73.95 37.21L73.91 37.17L73.81 37.07Q73.87 36.10 72.08 35.41L72.00 35.33L68.17 33.79L68.26 33.88Q65.99 32.60 65.65 29.06L65.54 28.96L65.46 28.87Q65.39 26.86 67.56 26.29L67.49 26.22L67.55 26.28Q68.39 25.94 71.36 25.94L71.51 26.09L71.39 25.97Q76.35 26.06 77.27 28.57L77.17 28.47L77.21 28.52Q76.52 29.01 75.80 29.46L75.93 29.59L74.46 30.48L74.49 30.52Q73.98 28.60 70.75 28.37L70.79 28.42L70.77 28.40Q70.13 28.36 69.10 28.78L69.05 28.73L69.09 28.77Q68.46 29.06 68.46 30.16L68.56 30.25L68.65 30.35Q68.95 31.37 70.77 32.05L70.64 31.91L70.65 31.93Q71.81 32.41 74.48 33.51L74.53 33.57L74.55 33.58Q76.23 34.27 76.42 36.82L76.43 36.83L76.49 36.89Q76.54 37.52 76.47 38.51L76.45 38.49L76.54 38.58Q76.45 39.40 75.88 40.05L75.93 40.10L75.79 39.96Q74.25 41.13 71.21 41.13ZM76.05 43.80L76.02 43.77L76.00 43.75Q76.91 43.79 78.28 43.48L78.36 43.56L78.30 43.50Q79.34 42.79 79.15 41.57L79.08 41.50L79.19 41.61Q79.08 41.01 78.78 39.41L78.73 39.36L78.78 39.41Q78.15 36.38 76.36 35.17L76.50 35.30L76.35 35.15Q75.87 33.80 74.62 33.08L74.69 33.15L74.72 33.18Q73.36 32.66 70.88 31.71L70.85 31.67L70.86 31.68Q71.14 31.36 71.41 31.24L71.39 31.22L71.42 31.25Q71.90 30.67 72.55 30.63L72.68 30.76L72.58 30.67Q73.35 30.60 74.11 30.86L74.06 30.81L74.28 31.10L74.31 31.02L74.44 30.96L74.50 31.06L74.43 30.99Q75.69 31.64 75.88 32.89L75.78 32.79L75.78 32.80Q76.95 31.87 78.85 30.19L79.02 30.36L78.95 30.30Q78.71 29.60 77.72 28.42L77.77 28.47L77.76 28.46Q76.54 25.68 71.44 25.56L71.39 25.51L71.48 25.60Q68.37 25.61 66.39 26.19L66.35 26.15L66.37 26.16Q64.85 26.62 65.07 28.71L65.15 28.79L65.22 28.86Q65.21 29.99 66.12 32.08L66.18 32.14L66.15 32.11Q66.66 33.20 67.69 33.92L67.76 33.99L67.74 33.97Q68.34 35.37 69.64 36.05L69.78 36.20L69.64 36.06Q70.60 36.33 71.55 36.71L71.60 36.76L73.47 37.49L73.43 37.45Q73.08 38.55 71.14 38.44L71.26 38.56L71.20 38.49Q70.84 38.63 69.62 38.32L69.63 38.33L69.48 38.03L69.45 38.23L69.46 38.24Q68.47 37.75 67.83 36.26L67.99 36.43L67.95 36.39Q65.80 37.93 64.70 39.07L64.59 38.96L64.72 39.10Q64.97 39.95 66.00 40.75L66.03 40.79L65.76 40.82L65.81 40.87Q67.22 42.97 71.45 43.35L71.51 43.41L71.39 43.29Q72.78 43.54 76.02 43.77Z"/><path fill="#444" d="M99.67 27.26L99.53 27.12L99.64 27.23Q100.30 27.09 101.70 26.93L101.79 27.02L101.87 27.10Q101.70 27.62 101.70 28.26L101.76 28.32L101.72 29.54L101.68 29.50Q101.01 29.66 100.17 29.74L100.05 29.61L100.11 29.68Q99.14 29.59 98.31 29.55L98.46 29.70L98.37 29.61Q95.58 35.85 92.16 40.46L92.14 40.44L92.16 40.46Q89.60 41.06 88.30 41.66L88.23 41.59L88.34 41.71Q92.35 35.89 95.39 29.61L95.52 29.74L92.75 29.59L92.78 29.62Q92.86 28.36 92.74 27.03L92.66 26.95L92.81 27.10Q94.54 27.08 96.60 27.08L96.73 27.21L98.50 23.38L98.61 23.49Q99.49 21.48 100.71 19.88L100.81 19.99L100.88 20.06Q99.32 20.21 97.72 20.21L97.67 20.16L97.64 20.13Q91.55 20.13 87.78 17.92L87.85 17.99L87.10 16.17L87.21 16.29Q86.75 15.33 86.37 14.45L86.50 14.59L86.51 14.59Q90.83 17.21 96.54 17.43L96.42 17.31L96.47 17.36Q101.53 17.51 106.67 15.53L106.82 15.68L106.72 15.58Q106.63 16.10 106.13 16.97L105.97 16.81L106.00 16.83Q102.46 21.68 99.61 27.20ZM107.75 18.36L107.72 18.33L108.58 16.18L108.63 16.24Q107.77 16.82 106.10 17.54L106.02 17.47L106.23 17.18L106.23 17.18Q106.37 17.05 106.48 16.94L106.42 16.88L106.42 16.88Q106.81 16.20 107.53 14.87L107.58 14.92L107.49 14.83Q102.13 17.08 96.38 16.85L96.50 16.97L96.54 17.01Q90.42 16.64 85.66 13.67L85.65 13.66L85.70 13.71Q86.62 15.46 87.45 18.13L87.50 18.18L87.49 18.16Q88.58 18.79 89.38 19.10L89.42 19.14L89.41 19.13Q89.59 19.51 90.05 21.37L90.16 21.48L90.16 21.48Q93.18 22.60 98.70 22.45L98.73 22.47L98.83 22.57Q98.51 23.13 96.53 26.90L96.38 26.74L96.51 26.88Q94.34 26.77 92.36 26.58L92.50 26.72L92.34 26.56Q92.54 27.51 92.54 28.39L92.60 28.45L92.59 30.15L94.26 30.15L94.14 31.44L94.21 31.51Q90.33 38.93 87.55 42.51L87.51 42.47L87.55 42.51Q89.12 41.72 90.75 41.22L90.67 41.14L90.65 41.12Q90.02 42.08 88.65 43.80L88.74 43.89L88.60 43.75Q91.85 42.74 94.29 42.51L94.18 42.40L94.35 42.57Q97.21 38.73 100.33 31.95L100.22 31.85L103.77 32.16L103.64 32.02Q103.69 31.24 103.69 30.33L103.66 30.30L103.56 28.41L103.75 28.60Q103.30 28.41 102.74 28.45L102.78 28.48L102.78 28.48Q102.33 28.63 102.06 28.63L102.07 28.63L102.08 28.64Q101.95 28.40 101.99 28.25L102.03 28.28L101.96 27.95L101.99 27.99Q104.62 22.96 107.71 18.32Z"/></svg>